<svg xmlns="http://www.w3.org/2000/svg" width="64" height="64"><defs><filter id="a" x="20.623" y="23.708" width="2.986" height="17.584" filterUnits="userSpaceOnUse"><feOffset dy="1"/><feGaussianBlur result="blur"/><feFlood flood-opacity=".369"/><feComposite operator="in" in2="blur"/><feComposite in="SourceGraphic"/></filter><filter id="b" x="27.315" y="19.903" width="9.266" height="11.295" filterUnits="userSpaceOnUse"><feOffset dy="1"/><feGaussianBlur result="blur-2"/><feFlood flood-opacity=".369"/><feComposite operator="in" in2="blur-2"/><feComposite in="SourceGraphic"/></filter><filter id="c" x="27.315" y="33.905" width="9.266" height="11.192" filterUnits="userSpaceOnUse"><feOffset dy="1"/><feGaussianBlur result="blur-3"/><feFlood flood-opacity=".369"/><feComposite operator="in" in2="blur-3"/><feComposite in="SourceGraphic"/></filter><filter id="d" x="40.288" y="23.648" width="3.089" height="17.704" filterUnits="userSpaceOnUse"><feOffset dy="1"/><feGaussianBlur result="blur-4"/><feFlood flood-opacity=".369"/><feComposite operator="in" in2="blur-4"/><feComposite in="SourceGraphic"/></filter></defs><g transform="translate(-336 -416)"><circle data-name="Ellipse 1" cx="32" cy="32" r="32" transform="translate(336 416)" fill="#192038"/><path data-name="Ellipse 1 - Outline" d="M368 417a31.008 31.008 0 00-12.066 59.564 31.008 31.008 0 0024.132-57.128A30.805 30.805 0 00368 417m0-1a32 32 0 11-32 32 32 32 0 0132-32z" fill="#192038"/><g data-name="Group 420"><path data-name="Union 1" d="M348.283 459.383v-22.767l19.716-11.383 19.717 11.383v22.767l-19.717 11.383zm20.488 9.035l17.3-9.987v-19.862l-2.667 1.55v16.773l-14.63 8.447zm-18.841-9.985l17.194 9.927v-3.08l-14.527-8.388v-16.824l-2.667-1.515zm4.314-18.375v15.883l13.755 7.941 13.755-7.941v-15.883l-13.755-7.941zm28.386-1.4l2.658-1.545-17.289-9.98-17.275 9.976 2.688 1.524 14.587-8.418z" fill="#fff"/><path data-name="Union 1 - Outline" d="M367.999 471.344l-20.216-11.672v-23.344l20.216-11.672 20.217 11.672v23.344zm-19.216-12.25l19.216 11.095 19.217-11.095v-22.189l-19.217-11.095-19.216 11.095zm19.488 10.19v-4.234l14.63-8.447v-16.77l3.667-2.132v21.02zm1-3.657v1.925l16.3-9.409v-18.7l-1.667.969v16.769zm-1.647 3.6L349.43 458.72v-21.026l3.667 2.084v16.825l14.527 8.387zm-17.194-11.084l16.194 9.35v-1.925l-14.527-8.387v-16.822l-1.667-.947zm17.569 6.317l-14.255-8.227V439.77l14.255-8.23 14.255 8.23v16.463zm-13.255-8.808l13.255 7.652 13.255-7.652v-15.305l-13.255-7.653-13.255 7.653zm27.887-16.412l-14.632-8.448-14.585 8.421-3.7-2.1 18.285-10.555 18.284 10.558zm-14.632-9.607l14.631 8.447 1.661-.966-16.292-9.401-16.269 9.393 1.68.955z" fill="rgba(0,0,0,0)"/><g transform="translate(336.003 415.998)" filter="url(#a)"><path data-name="Path 1538" d="M20.62 25.433l2.986-1.723v16.584l-2.986-1.723z" fill="#fff"/></g><g transform="translate(336.003 415.998)" filter="url(#b)"><path data-name="Path 1539" d="M33.806 19.9l2.78 1.605v8.69H27.32v-8.63l2.78-1.605v7.352h3.707z" fill="#fff"/></g><g transform="translate(336.003 415.998)" filter="url(#c)"><path data-name="Path 1540" d="M36.586 33.9v8.587l-2.78 1.605v-7.618H30.1v7.558l-2.78-1.605V33.9z" fill="#fff"/></g><g transform="translate(336.003 415.998)" filter="url(#d)"><path data-name="Path 1541" d="M43.379 25.433V38.57l-3.089 1.784v-16.7z" fill="#fff"/></g></g></g></svg>