<svg id="BG3" xmlns="http://www.w3.org/2000/svg" xmlns:xlink="http://www.w3.org/1999/xlink" width="1920" height="1080" viewBox="0 0 1920 1080">
  <defs>
    <linearGradient id="linear-gradient" y1="0.5" x2="0.979" y2="0.5" gradientUnits="objectBoundingBox">
      <stop offset="0" stop-color="#0c1021"/>
      <stop offset="1" stop-color="#0d1731"/>
    </linearGradient>
    <clipPath id="clip-path">
      <rect id="Rectangle_50" data-name="Rectangle 50" width="1920" height="1080" fill="#fff"/>
    </clipPath>
    <linearGradient id="linear-gradient-2" x1="0.592" y1="-0.202" x2="0.587" y2="1.059" gradientUnits="objectBoundingBox">
      <stop offset="0" stop-color="#07f" stop-opacity="0.129"/>
      <stop offset="1" stop-color="#2474ff" stop-opacity="0"/>
    </linearGradient>
    <linearGradient id="linear-gradient-3" x1="0.942" y1="-0.422" x2="0.259" y2="0.817" gradientUnits="objectBoundingBox">
      <stop offset="0" stop-color="#fff" stop-opacity="0"/>
      <stop offset="1" stop-color="#01f" stop-opacity="0.231"/>
    </linearGradient>
    <linearGradient id="linear-gradient-4" x1="0.724" y1="0.5" x2="0.259" y2="0.817" gradientUnits="objectBoundingBox">
      <stop offset="0" stop-color="#fff" stop-opacity="0"/>
      <stop offset="1" stop-color="#fff" stop-opacity="0.129"/>
    </linearGradient>
    <linearGradient id="linear-gradient-5" x1="0.583" y1="0.655" x2="0" y2="0.074" xlink:href="#linear-gradient-4"/>
    <linearGradient id="linear-gradient-8" x1="-0.065" y1="0.62" x2="0.587" y2="1.059" xlink:href="#linear-gradient-2"/>
    <linearGradient id="linear-gradient-9" x1="1.012" y1="0.836" x2="0.001" y2="0.71" gradientUnits="objectBoundingBox">
      <stop offset="0" stop-color="#fff" stop-opacity="0.102"/>
      <stop offset="1" stop-color="#2474ff" stop-opacity="0"/>
    </linearGradient>
    <linearGradient id="linear-gradient-10" x1="0.359" y1="0.415" x2="0.517" y2="-0.005" gradientUnits="objectBoundingBox">
      <stop offset="0" stop-color="#00a8ff" stop-opacity="0"/>
      <stop offset="1" stop-color="#0080ff" stop-opacity="0.129"/>
    </linearGradient>
    <linearGradient id="linear-gradient-15" x1="0.359" y1="0.415" x2="0.517" y2="-0.005" xlink:href="#linear-gradient-4"/>
    <linearGradient id="linear-gradient-17" x1="0.359" y1="0.585" x2="0.517" y2="1.005" xlink:href="#linear-gradient-4"/>
    <linearGradient id="linear-gradient-45" x1="0.558" y1="1" x2="0.558" y2="0.006" gradientUnits="objectBoundingBox">
      <stop offset="0" stop-color="#090d1c"/>
      <stop offset="1" stop-color="#101936"/>
    </linearGradient>
  </defs>
  <g id="BACKGROUND_MAIN" data-name="BACKGROUND/MAIN" transform="translate(-10966 -11190)">
    <rect id="BACKGROUND_MAIN-2" data-name="BACKGROUND/MAIN" width="1920" height="1080" transform="translate(10966 11190)" fill="url(#linear-gradient)"/>
    <rect id="BACKGROUND_MAIN-3" data-name="BACKGROUND/MAIN" width="1920" height="1080" transform="translate(10966 11190)" fill="none"/>
  </g>
  <g id="Mask_Group_4" data-name="Mask Group 4" clip-path="url(#clip-path)">
    <g id="Group_302" data-name="Group 302" opacity="0.61">
      <path id="Path_199" data-name="Path 199" d="M6056,1104,7104,38l810,824v426l-1982-12v-60Z" transform="translate(-5932 351)" fill="url(#linear-gradient-2)"/>
      <path id="Path_200" data-name="Path 200" d="M5970-100l655.4,633.933L7244-100Z" transform="translate(-6087 -25)" opacity="0.69" fill="url(#linear-gradient-3)"/>
      <path id="Path_201" data-name="Path 201" d="M5942,566l398-386L5950-230Z" transform="translate(-5967 12)" fill="url(#linear-gradient-4)"/>
      <path id="Path_202" data-name="Path 202" d="M6726,1198,7938-20V1228Z" transform="translate(-5766 -64)" fill="url(#linear-gradient-5)"/>
      <rect id="Rectangle_471" data-name="Rectangle 471" width="870" height="870" transform="translate(269 -226.183) rotate(45)" fill="url(#linear-gradient-2)"/>
      <rect id="Rectangle_472" data-name="Rectangle 472" width="870" height="870" transform="translate(243.817 398.817) rotate(45)" fill="url(#linear-gradient-2)"/>
      <rect id="Rectangle_473" data-name="Rectangle 473" width="870" height="870" transform="translate(1511.817 -138.183) rotate(45)" fill="url(#linear-gradient-8)"/>
      <rect id="Rectangle_474" data-name="Rectangle 474" width="870" height="870" transform="translate(1417.817 -794.183) rotate(45)" fill="url(#linear-gradient-9)"/>
      <g id="Group_299" data-name="Group 299" transform="translate(-113 237.001)">
        <g id="Group_297" data-name="Group 297" transform="matrix(1, 0.017, -0.017, 1, 11.794, -3.44)">
          <rect id="Rectangle_39" data-name="Rectangle 39" width="6" height="617" transform="matrix(0.719, 0.695, -0.695, 0.719, 313.144, 316.5)" fill="url(#linear-gradient-10)"/>
          <rect id="Rectangle_40" data-name="Rectangle 40" width="6" height="617" transform="matrix(0.719, 0.695, -0.695, 0.719, 301.144, 377.5)" fill="url(#linear-gradient-10)"/>
          <rect id="Rectangle_41" data-name="Rectangle 41" width="6" height="617" transform="matrix(0.719, 0.695, -0.695, 0.719, 413.144, 423.5)" fill="url(#linear-gradient-10)"/>
          <rect id="Rectangle_42" data-name="Rectangle 42" width="6" height="617" transform="matrix(0.719, 0.695, -0.695, 0.719, 392.144, 622.5)" fill="url(#linear-gradient-10)"/>
          <rect id="Rectangle_43" data-name="Rectangle 43" width="6" height="617" transform="matrix(0.719, 0.695, -0.695, 0.719, 529.144, 540.5)" fill="url(#linear-gradient-10)"/>
        </g>
        <g id="Group_298" data-name="Group 298" transform="matrix(1, 0.017, -0.017, 1, 11.794, -3.44)">
          <rect id="Rectangle_44" data-name="Rectangle 44" width="6" height="617" transform="matrix(0.719, 0.695, -0.695, 0.719, 453.144, 514.5)" opacity="0.38" fill="url(#linear-gradient-15)"/>
          <rect id="Rectangle_45" data-name="Rectangle 45" width="6" height="617" transform="matrix(0.719, 0.695, -0.695, 0.719, 309.144, 277.5)" opacity="0.38" fill="url(#linear-gradient-15)"/>
        </g>
      </g>
      <g id="Group_300" data-name="Group 300" transform="translate(1197 -80.301)">
        <g id="Group_297-2" data-name="Group 297" transform="matrix(-1, 0.017, -0.017, -1, 331.319, 389.701)">
          <rect id="Rectangle_39-2" data-name="Rectangle 39" width="2.95" height="303.309" transform="matrix(0.719, -0.695, 0.695, 0.719, 5.899, 152.475)" fill="url(#linear-gradient-17)"/>
          <rect id="Rectangle_40-2" data-name="Rectangle 40" width="2.95" height="303.309" transform="matrix(0.719, -0.695, 0.695, 0.719, 0, 122.488)" fill="url(#linear-gradient-17)"/>
          <rect id="Rectangle_41-2" data-name="Rectangle 41" width="2.95" height="303.309" transform="matrix(0.719, -0.695, 0.695, 0.719, 55.058, 99.875)" fill="url(#linear-gradient-17)"/>
          <rect id="Rectangle_42-2" data-name="Rectangle 42" width="2.95" height="303.309" transform="matrix(0.719, -0.695, 0.695, 0.719, 44.734, 2.049)" fill="url(#linear-gradient-17)"/>
          <rect id="Rectangle_43-2" data-name="Rectangle 43" width="2.95" height="303.309" transform="matrix(0.719, -0.695, 0.695, 0.719, 112.082, 42.359)" fill="url(#linear-gradient-17)"/>
        </g>
        <g id="Group_298-2" data-name="Group 298" transform="matrix(-1, 0.017, -0.017, -1, 326.461, 336.686)">
          <rect id="Rectangle_44-2" data-name="Rectangle 44" width="2.95" height="303.309" transform="matrix(0.719, -0.695, 0.695, 0.719, 70.789, 2.049)" opacity="0.38" fill="url(#linear-gradient-17)"/>
          <rect id="Rectangle_45-2" data-name="Rectangle 45" width="2.95" height="303.309" transform="matrix(0.719, -0.695, 0.695, 0.719, 0, 118.555)" opacity="0.38" fill="url(#linear-gradient-17)"/>
        </g>
      </g>
      <g id="Group_301" data-name="Group 301" transform="translate(771.057 596)">
        <g id="Group_297-3" data-name="Group 297" transform="matrix(-1, 0.017, -0.017, -1, 615.206, 723.611)">
          <rect id="Rectangle_39-3" data-name="Rectangle 39" width="5.477" height="563.196" transform="matrix(0.719, -0.695, 0.695, 0.719, 10.954, 283.12)" fill="url(#linear-gradient-17)"/>
          <rect id="Rectangle_40-3" data-name="Rectangle 40" width="5.477" height="563.196" transform="matrix(0.719, -0.695, 0.695, 0.719, 0, 227.44)" fill="url(#linear-gradient-17)"/>
          <rect id="Rectangle_41-3" data-name="Rectangle 41" width="5.477" height="563.196" transform="matrix(0.719, -0.695, 0.695, 0.719, 102.233, 185.451)" fill="url(#linear-gradient-17)"/>
          <rect id="Rectangle_42-3" data-name="Rectangle 42" width="5.477" height="563.196" transform="matrix(0.719, -0.695, 0.695, 0.719, 83.065, 3.805)" fill="url(#linear-gradient-17)"/>
          <rect id="Rectangle_43-3" data-name="Rectangle 43" width="5.477" height="563.196" transform="matrix(0.719, -0.695, 0.695, 0.719, 208.118, 78.654)" fill="url(#linear-gradient-17)"/>
        </g>
        <g id="Group_298-3" data-name="Group 298" transform="matrix(-1, 0.017, -0.017, -1, 606.184, 625.171)">
          <rect id="Rectangle_44-3" data-name="Rectangle 44" width="5.477" height="563.196" transform="matrix(0.719, -0.695, 0.695, 0.719, 131.443, 3.805)" opacity="0.38" fill="url(#linear-gradient-17)"/>
          <rect id="Rectangle_45-3" data-name="Rectangle 45" width="5.477" height="563.196" transform="matrix(0.719, -0.695, 0.695, 0.719, 0, 220.137)" opacity="0.38" fill="url(#linear-gradient-17)"/>
        </g>
      </g>
      <g id="Group_386" data-name="Group 386" transform="translate(1651.397 460)">
        <g id="Group_297-4" data-name="Group 297" transform="matrix(-1, 0.017, -0.017, -1, 615.206, 723.611)">
          <rect id="Rectangle_39-4" data-name="Rectangle 39" width="5.477" height="563.196" transform="matrix(0.719, -0.695, 0.695, 0.719, 10.954, 283.12)" fill="url(#linear-gradient-17)"/>
          <rect id="Rectangle_40-4" data-name="Rectangle 40" width="5.477" height="563.196" transform="matrix(0.719, -0.695, 0.695, 0.719, 0, 227.44)" fill="url(#linear-gradient-17)"/>
          <rect id="Rectangle_41-4" data-name="Rectangle 41" width="5.477" height="563.196" transform="matrix(0.719, -0.695, 0.695, 0.719, 102.233, 185.451)" fill="url(#linear-gradient-17)"/>
          <rect id="Rectangle_42-4" data-name="Rectangle 42" width="5.477" height="563.196" transform="matrix(0.719, -0.695, 0.695, 0.719, 83.065, 3.805)" fill="url(#linear-gradient-17)"/>
          <rect id="Rectangle_43-4" data-name="Rectangle 43" width="5.477" height="563.196" transform="matrix(0.719, -0.695, 0.695, 0.719, 208.118, 78.654)" fill="url(#linear-gradient-17)"/>
        </g>
        <g id="Group_298-4" data-name="Group 298" transform="matrix(-1, 0.017, -0.017, -1, 606.184, 625.171)">
          <rect id="Rectangle_44-4" data-name="Rectangle 44" width="5.477" height="563.196" transform="matrix(0.719, -0.695, 0.695, 0.719, 131.443, 3.805)" opacity="0.38" fill="url(#linear-gradient-17)"/>
          <rect id="Rectangle_45-4" data-name="Rectangle 45" width="5.477" height="563.196" transform="matrix(0.719, -0.695, 0.695, 0.719, 0, 220.137)" opacity="0.38" fill="url(#linear-gradient-17)"/>
        </g>
      </g>
      <g id="Group_387" data-name="Group 387" transform="translate(306.057 -52)">
        <g id="Group_297-5" data-name="Group 297" transform="matrix(-1, 0.017, -0.017, -1, 615.206, 723.611)">
          <rect id="Rectangle_39-5" data-name="Rectangle 39" width="5.477" height="563.196" transform="matrix(0.719, -0.695, 0.695, 0.719, 10.954, 283.12)" fill="url(#linear-gradient-17)"/>
          <rect id="Rectangle_40-5" data-name="Rectangle 40" width="5.477" height="563.196" transform="matrix(0.719, -0.695, 0.695, 0.719, 0, 227.44)" fill="url(#linear-gradient-17)"/>
          <rect id="Rectangle_41-5" data-name="Rectangle 41" width="5.477" height="563.196" transform="matrix(0.719, -0.695, 0.695, 0.719, 102.233, 185.451)" fill="url(#linear-gradient-17)"/>
          <rect id="Rectangle_42-5" data-name="Rectangle 42" width="5.477" height="563.196" transform="matrix(0.719, -0.695, 0.695, 0.719, 83.065, 3.805)" fill="url(#linear-gradient-17)"/>
          <rect id="Rectangle_43-5" data-name="Rectangle 43" width="5.477" height="563.196" transform="matrix(0.719, -0.695, 0.695, 0.719, 208.118, 78.654)" fill="url(#linear-gradient-17)"/>
        </g>
        <g id="Group_298-5" data-name="Group 298" transform="matrix(-1, 0.017, -0.017, -1, 606.184, 625.171)">
          <rect id="Rectangle_44-5" data-name="Rectangle 44" width="5.477" height="563.196" transform="matrix(0.719, -0.695, 0.695, 0.719, 131.443, 3.805)" opacity="0.38" fill="url(#linear-gradient-17)"/>
          <rect id="Rectangle_45-5" data-name="Rectangle 45" width="5.477" height="563.196" transform="matrix(0.719, -0.695, 0.695, 0.719, 0, 220.137)" opacity="0.38" fill="url(#linear-gradient-17)"/>
        </g>
      </g>
    </g>
  </g>
  <path id="MAIN_BG" d="M0,0H1920V1080H0Z" opacity="0.72" fill="url(#linear-gradient-45)"/>
</svg>
